<svg xmlns="http://www.w3.org/2000/svg" viewBox="0 0 32 32">
  <rect width="32" height="32" rx="4" fill="#0a66c2"/>
  <path d="M9.5 13h2.5v8h-2.5zM10.75 9.5a1.5 1.5 0 1 1 0 3 1.5 1.5 0 0 1 0-3zM14 13h2.4v1.1a2.6 2.6 0 0 1 2.4-1.3c2.5 0 3 1.7 3 3.8v4.4h-2.5v-3.9c0-.9 0-2.1-1.3-2.1s-1.5 1-1.5 2v4h-2.5z" fill="white"/>
  <circle cx="23.5" cy="23.5" r="5.5" fill="#0a66c2" stroke="white" stroke-width="1.5"/>
  <circle cx="22" cy="22" r="2.8" fill="none" stroke="white" stroke-width="1.4"/>
  <line x1="24" y1="24" x2="27.5" y2="27.5" stroke="white" stroke-width="1.4" stroke-linecap="round"/>
</svg>
